<svg xmlns="http://www.w3.org/2000/svg" version="1.1" xmlns:xlink="http://www.w3.org/1999/xlink" xmlns:svgjs="http://svgjs.dev/svgjs" width="1500" height="1500" viewBox="0 0 1500 1500"><rect width="1500" height="1500" fill="#fbc117"></rect><g transform="matrix(0.6666666666666666,0,0,0.6666666666666666,249.39394055166173,597.0751267256146)"><svg viewBox="0 0 396 121" data-background-color="#fbc117" preserveAspectRatio="xMidYMid meet" height="458" width="1500" xmlns="http://www.w3.org/2000/svg" xmlns:xlink="http://www.w3.org/1999/xlink"><g id="tight-bounds" transform="matrix(1,0,0,1,0.23999954154191983,0.102324234281582)"><svg viewBox="0 0 395.52 120.79535153143681" height="120.79535153143681" width="395.52"><g><svg viewBox="0 0 578.56158718118 176.69789215750575" height="120.79535153143681" width="395.52"><g transform="matrix(1,0,0,1,183.04158718118006,24.420620406717518)"><svg viewBox="0 0 395.52 127.85665134407071" height="127.85665134407071" width="395.52"><g id="textblocktransform"><svg viewBox="0 0 395.52 127.85665134407071" height="127.85665134407071" width="395.52" id="textblock"><g><svg viewBox="0 0 395.52 127.85665134407071" height="127.85665134407071" width="395.52"><g transform="matrix(1,0,0,1,0,0)"><svg width="395.52" viewBox="0.9755553777820001 -36.3 113.82734746202298 36.8" height="127.85665134407071" data-palette-color="#fcfaf7"><path d="M23.7 0L2 0Q1.45 0 1.18-0.35 0.9-0.7 1-1.2L1-1.2 7.95-33.8Q8.05-34.3 8.45-34.65 8.85-35 9.4-35L9.4-35 14-35Q14.55-35 14.83-34.65 15.1-34.3 15-33.8L15-33.8 9.05-5.95 24.9-5.95Q25.45-5.95 25.73-5.6 26-5.25 25.9-4.7L25.9-4.7 25.15-1.2Q25.05-0.7 24.65-0.35 24.25 0 23.7 0L23.7 0ZM34.25 0L30.1 0Q29.6 0 29.32-0.35 29.05-0.7 29.15-1.2L29.15-1.2 34.15-24.8Q34.25-25.3 34.67-25.65 35.1-26 35.6-26L35.6-26 39.75-26Q40.3-26 40.55-25.65 40.8-25.3 40.7-24.8L40.7-24.8 35.7-1.2Q35.6-0.7 35.2-0.35 34.8 0 34.25 0L34.25 0ZM40.9-30.3L36.3-30.3Q35.8-30.3 35.52-30.65 35.25-31 35.35-31.5L35.35-31.5 36.15-35.1Q36.25-35.6 36.65-35.95 37.05-36.3 37.6-36.3L37.6-36.3 42.15-36.3Q42.65-36.3 42.95-35.95 43.25-35.6 43.15-35.1L43.15-35.1 42.35-31.5Q42.25-31 41.82-30.65 41.4-30.3 40.9-30.3L40.9-30.3ZM51.85 0.5L51.85 0.5Q49.25 0.5 47.45-0.38 45.65-1.25 44.62-2.85 43.6-4.45 43.3-6.63 43-8.8 43.4-11.4L43.4-11.4Q43.6-12.3 43.75-13.03 43.9-13.75 44.1-14.65L44.1-14.65Q44.75-17.15 45.82-19.3 46.9-21.45 48.47-23.08 50.05-24.7 52.17-25.6 54.3-26.5 57.05-26.5L57.05-26.5Q60.15-26.5 61.77-25.53 63.4-24.55 64.3-23.15L64.3-23.15 64.65-24.8Q64.75-25.3 65.15-25.65 65.55-26 66.05-26L66.05-26 70-26Q70.5-26 70.8-25.65 71.09-25.3 71-24.8L71-24.8 65.95-1.2Q65.84-0.7 65.45-0.35 65.05 0 64.55 0L64.55 0 60.59 0Q60.05 0 59.77-0.35 59.5-0.7 59.59-1.2L59.59-1.2 60-3.05Q58.5-1.5 56.7-0.5 54.9 0.5 51.85 0.5ZM54.1-4.85L54.1-4.85Q56.2-4.85 57.7-5.8 59.2-6.75 60.12-8.22 61.05-9.7 61.45-11.25L61.45-11.25Q61.7-12.15 61.9-13.18 62.1-14.2 62.25-15.1L62.25-15.1Q62.55-16.6 62.3-17.98 62.05-19.35 61.02-20.25 60-21.15 57.95-21.15L57.95-21.15Q56-21.15 54.62-20.23 53.25-19.3 52.35-17.8 51.45-16.3 50.9-14.5L50.9-14.5Q50.7-13.75 50.55-13 50.4-12.25 50.3-11.5L50.3-11.5Q50.05-9.7 50.17-8.2 50.3-6.7 51.22-5.78 52.15-4.85 54.1-4.85ZM77.79 0L73.59 0Q73.09 0 72.82-0.35 72.54-0.7 72.64-1.2L72.64-1.2 77.64-24.8Q77.74-25.3 78.17-25.65 78.59-26 79.09-26L79.09-26 82.99-26Q83.49-26 83.74-25.65 83.99-25.3 83.89-24.8L83.89-24.8 83.54-23.1Q84.49-24.05 85.52-24.83 86.54-25.6 87.89-26.05 89.24-26.5 91.04-26.5L91.04-26.5Q93.94-26.5 95.82-25.33 97.69-24.15 98.34-22.05L98.34-22.05Q99.94-24.05 102.04-25.28 104.14-26.5 106.94-26.5L106.94-26.5Q109.64-26.5 111.62-25.3 113.59-24.1 114.39-21.68 115.19-19.25 114.44-15.55L114.44-15.55 111.34-1.2Q111.24-0.7 110.84-0.35 110.44 0 109.94 0L109.94 0 105.84 0Q105.34 0 105.07-0.35 104.79-0.7 104.89-1.2L104.89-1.2 107.84-15.15Q108.34-17.4 108.04-18.73 107.74-20.05 106.82-20.6 105.89-21.15 104.59-21.15L104.59-21.15Q103.44-21.15 102.17-20.6 100.89-20.05 99.82-18.73 98.74-17.4 98.29-15.15L98.29-15.15 95.29-1.2Q95.19-0.7 94.79-0.35 94.39 0 93.89 0L93.89 0 89.79 0Q89.29 0 88.99-0.35 88.69-0.7 88.79-1.2L88.79-1.2 91.79-15.15Q92.24-17.4 91.92-18.73 91.59-20.05 90.69-20.6 89.79-21.15 88.49-21.15L88.49-21.15Q87.39-21.15 86.09-20.58 84.79-20 83.72-18.7 82.64-17.4 82.19-15.15L82.19-15.15 79.19-1.2Q79.09-0.7 78.69-0.35 78.29 0 77.79 0L77.79 0Z" opacity="1" transform="matrix(1,0,0,1,0,0)" fill="#fcfaf7" class="wordmark-text-0" data-fill-palette-color="primary" id="text-0"></path></svg></g></svg></g></svg></g></svg></g><g><svg viewBox="0 0 152.85770035847722 176.69789215750575" height="176.69789215750575" width="152.85770035847722"><g><svg xmlns="http://www.w3.org/2000/svg" xmlns:xlink="http://www.w3.org/1999/xlink" version="1.1" x="0" y="0" viewBox="17.3 12.2 65.4 75.6" style="enable-background:new 0 0 100 100;" xml:space="preserve" height="176.69789215750575" width="152.85770035847722" class="icon-icon-0" data-fill-palette-color="accent" id="icon-0"><path d="M50 12.2L17.3 31.1v37.8L50 87.8l32.7-18.9V31.1L50 12.2zM32.1 37.4L50 16l17 21.4H32.1zM67.3 39.4L50 70.4l-18.2-31H67.3zM48.1 71l-27.7-4.5 9.8-25.9L48.1 71zM68.9 40.7l10.7 25.9-27.7 4.5L68.9 40.7zM69.2 37.1L52.6 16l27 15.6L69.2 37.1zM29.8 37.1l-9.4-5.5 26.8-15.5L29.8 37.1zM28.8 38.8l-9.5 25V33.3L28.8 38.8zM49 73.2v11.7L20.9 68.7 49 73.2zM51 73.2l28.1-4.5L51 84.9V73.2zM70.3 38.8l10.5-5.6v30.9L70.3 38.8z" fill="#fcfaf7" data-fill-palette-color="accent"></path></svg></g></svg></g></svg></g><defs></defs></svg><rect width="395.52" height="120.79535153143681" fill="none" stroke="none" visibility="hidden"></rect></g></svg></g></svg>